<?xml version="1.0" encoding="UTF-8"?>
<!DOCTYPE svg PUBLIC "-//W3C//DTD SVG 1.1//EN" "http://www.w3.org/Graphics/SVG/1.1/DTD/svg11.dtd">
<!-- Creator: CorelDRAW X6 -->
<svg xmlns="http://www.w3.org/2000/svg" xml:space="preserve" width="210mm" height="297mm" version="1.1" style="shape-rendering:geometricPrecision; text-rendering:geometricPrecision; image-rendering:optimizeQuality; fill-rule:evenodd; clip-rule:evenodd"
viewBox="0 0 21000 29700"
 xmlns:xlink="http://www.w3.org/1999/xlink">
 <defs>
  <style type="text/css">
   <![CDATA[
    .fil0 {fill:#FEFEFE}
   ]]>
  </style>
 </defs>
 <g id="Camada_x0020_1">
  <metadata id="CorelCorpID_0Corel-Layer"/>
  <path class="fil0" d="M15157 15979l0 -7056c0,-6 -3,-12 -4,-18 -1,-25 -6,-49 -14,-72 -3,-9 -5,-18 -9,-27 -14,-31 -33,-59 -56,-83l-2258 -2258c-24,-24 -52,-43 -83,-57 -9,-4 -17,-6 -25,-9 -24,-8 -49,-13 -75,-15 -5,0 -10,-2 -15,-2l-9031 0c-156,0 -282,126 -282,282l0 14676c0,156 126,282 282,282l7056 0 0 -564 -6773 0 0 -14111 8467 0 0 1976c0,156 126,282 282,282l1976 0 0 6773 564 0zm-2258 -7338l0 -1294 1294 1294 -1294 0zm0 0z"/>
  <path class="fil0" d="M4997 15414l2258 0 0 564 -2258 0 0 -564zm0 0z"/>
  <path class="fil0" d="M4997 18801l1129 0 0 564 -1129 0 0 -564zm0 0z"/>
  <path class="fil0" d="M4997 17108l5927 0 0 564 -5927 0 0 -564zm0 0z"/>
  <path class="fil0" d="M7819 15414l5644 0 0 564 -5644 0 0 -564zm0 0z"/>
  <path class="fil0" d="M4997 12028l2822 0 0 564 -2822 0 0 -564zm0 0z"/>
  <path class="fil0" d="M8383 12028l5080 0 0 564 -5080 0 0 -564zm0 0z"/>
  <path class="fil0" d="M10641 13721l2822 0 0 564 -2822 0 0 -564zm0 0z"/>
  <path class="fil0" d="M4997 13721l5080 0 0 564 -5080 0 0 -564zm0 0z"/>
  <path class="fil0" d="M4997 10334l5080 0 0 564 -5080 0 0 -564zm0 0z"/>
  <path class="fil0" d="M10641 10334l2822 0 0 564 -2822 0 0 -564zm0 0z"/>
  <path class="fil0" d="M6690 18801l3669 0 0 564 -3669 0 0 -564zm0 0z"/>
  <path class="fil0" d="M4997 8641l1693 0 0 564 -1693 0 0 -564zm0 0z"/>
  <path class="fil0" d="M7254 8641l1129 0 0 564 -1129 0 0 -564zm0 0z"/>
  <path class="fil0" d="M14310 16543c-1870,0 -3387,1516 -3387,3387 0,1870 1516,3387 3387,3387 1870,0 3387,-1516 3387,-3387 -2,-1870 -1517,-3385 -3387,-3387zm0 6209c-1559,0 -2822,-1264 -2822,-2822 0,-1559 1264,-2822 2822,-2822 1559,0 2822,1264 2822,2822 -2,1558 -1264,2821 -2822,2822zm0 0z"/>
  <path class="fil0" d="M14592 18237l-564 0 0 1411 -1411 0 0 564 1411 0 0 1411 564 0 0 -1411 1411 0 0 -564 -1411 0 0 -1411zm0 0z"/>
 </g>
</svg>
