<?xml version="1.0" encoding="UTF-8"?>
<!DOCTYPE svg PUBLIC "-//W3C//DTD SVG 1.1//EN" "http://www.w3.org/Graphics/SVG/1.1/DTD/svg11.dtd">
<!-- Creator: CorelDRAW X6 -->
<svg xmlns="http://www.w3.org/2000/svg" xml:space="preserve" width="210mm" height="297mm" version="1.1" style="shape-rendering:geometricPrecision; text-rendering:geometricPrecision; image-rendering:optimizeQuality; fill-rule:evenodd; clip-rule:evenodd"
viewBox="0 0 21000 29700"
 xmlns:xlink="http://www.w3.org/1999/xlink">
 <defs>
  <style type="text/css">
   <![CDATA[
    .fil0 {fill:#FEFEFE}
   ]]>
  </style>
 </defs>
 <g id="Camada_x0020_1">
  <metadata id="CorelCorpID_0Corel-Layer"/>
  <g id="_198718080">
   <g>
    <path class="fil0" d="M11026 14523l-165 76c0,0 -28,0 -64,0 -6,0 -12,4 -18,9l0 -93c0,-82 -66,-148 -148,-148l-673 0c-82,0 -148,66 -148,148l0 538c0,82 66,148 148,148l20 0 256 0 295 0 0 -79c0,-39 32,-70 70,-70l28 0 0 -28c0,-39 32,-70 70,-70l83 0c18,0 34,7 47,18l34 0c0,0 74,33 165,73 91,40 165,-77 165,-263 0,-186 -74,-302 -165,-260z"/>
    <path class="fil0" d="M10780 14995l-83 0c-16,0 -29,13 -29,29l0 69 -69 0c-16,0 -29,13 -29,29l0 84c0,16 13,29 29,29l69 0 0 69c0,16 13,29 29,29l83 0c16,0 29,-13 29,-29l0 -69 69 0c16,0 29,-13 29,-29l0 -84c0,-16 -13,-29 -29,-29l-69 0 0 -69c0,-16 -13,-29 -29,-29z"/>
   </g>
  </g>
  <g id="_198716128">
  </g>
  <g id="_198716064">
  </g>
  <g id="_198716544">
  </g>
  <g id="_198717376">
  </g>
  <g id="_198716320">
  </g>
  <g id="_198716896">
  </g>
  <g id="_198715840">
  </g>
  <g id="_198716768">
  </g>
  <g id="_198716096">
  </g>
  <g id="_198717024">
  </g>
  <g id="_198715328">
  </g>
  <g id="_198714880">
  </g>
  <g id="_198714336">
  </g>
  <g id="_198715456">
  </g>
  <g id="_198714272">
  </g>
 </g>
</svg>
