<svg width="43" height="43" viewBox="0 0 43 43" fill="none" xmlns="http://www.w3.org/2000/svg">
<path d="M39.3004 2H3.63401C2.73157 2 2 2.7328 2 3.63676V39.3632C2 40.2672 2.73157 41 3.63401 41H39.3004C40.2029 41 40.9345 40.2672 40.9345 39.3632V3.63676C40.9345 2.7328 40.2029 2 39.3004 2Z" fill="#009933" stroke="#CC9933" stroke-width="2.5"/>
<path d="M21.4693 24.5219C25.1219 24.5219 28.0829 21.5559 28.0829 17.8971C28.0829 14.2383 25.1219 11.2723 21.4693 11.2723C17.8166 11.2723 14.8556 14.2383 14.8556 17.8971C14.8556 21.5559 17.8166 24.5219 21.4693 24.5219Z" fill="#FEFEFE"/>
<path fill-rule="evenodd" clip-rule="evenodd" d="M7.1839 35.4759H35.7587C31.163 23.5398 11.9879 23.7403 7.1839 35.4759Z" fill="#FEFEFE"/>
<path fill-rule="evenodd" clip-rule="evenodd" d="M8.20517 4.46341H12.7682C13.3196 4.46341 13.7731 4.91761 13.7731 5.47002V5.80146L13.9896 5.66234L15.6318 4.59844V6.73033V8.86221L13.9896 7.79831L13.7731 7.65919V7.99063C13.7731 8.54304 13.3196 8.99724 12.7682 8.99724H8.20517C7.65369 8.99724 7.20026 8.54304 7.20026 7.99063V5.4782C7.20026 4.92579 7.65369 4.47159 8.20517 4.47159V4.46341Z" fill="white"/>
<path d="M5.06377 8.12561C5.83536 8.12561 6.46085 7.49907 6.46085 6.72618C6.46085 5.9533 5.83536 5.32675 5.06377 5.32675C4.29218 5.32675 3.66669 5.9533 3.66669 6.72618C3.66669 7.49907 4.29218 8.12561 5.06377 8.12561Z" fill="#ED3237"/>
</svg>
