<svg width="36" height="36" viewBox="0 0 36 36" fill="none" xmlns="http://www.w3.org/2000/svg">
<path d="M28.6666 30V27.3333C28.6666 25.9188 28.1047 24.5623 27.1045 23.5621C26.1044 22.5619 24.7478 22 23.3333 22H12.6666C11.2522 22 9.8956 22.5619 8.89541 23.5621C7.89522 24.5623 7.33331 25.9188 7.33331 27.3333V30" stroke="white" stroke-width="2" stroke-linecap="round" stroke-linejoin="round"/>
<path d="M18 16.6667C20.9455 16.6667 23.3334 14.2789 23.3334 11.3333C23.3334 8.38781 20.9455 6 18 6C15.0545 6 12.6667 8.38781 12.6667 11.3333C12.6667 14.2789 15.0545 16.6667 18 16.6667Z" stroke="white" stroke-width="2" stroke-linecap="round" stroke-linejoin="round"/>
<rect x="1" y="1" width="34" height="34" stroke="white" stroke-width="2" stroke-linejoin="round"/>
</svg>
